HIERARCHY
ROOT SpineBase
{
  OFFSET 0.000000 0.000000 0.000000
  CHANNELS 6 Xposition Yposition Zposition Zrotation Xrotation Yrotation
  JOINT SpineMid
  {
    OFFSET 0.000000 36.702090 0.000000
    CHANNELS 3 Zrotation Xrotation Yrotation
    JOINT SpineShoulder
    {
      OFFSET 0.173132 27.015112 -0.751336
      CHANNELS 3 Zrotation Xrotation Yrotation
      JOINT Neck
      {
        OFFSET 0.126282 8.852870 -0.568204
        CHANNELS 3 Zrotation Xrotation Yrotation
        JOINT Head
        {
          OFFSET 1.063035 13.669874 3.977350
          CHANNELS 3 Zrotation Xrotation Yrotation
          End Site
          {
            OFFSET 0 0 0
          }
        }
      }
      JOINT ShoulderLeft
      {
        OFFSET -12.982241 -6.250444 -7.003468
        CHANNELS 3 Zrotation Xrotation Yrotation
        JOINT ElbowLeft
        {
          OFFSET -11.609770 -24.359251 8.267665
          CHANNELS 3 Zrotation Xrotation Yrotation
          JOINT WristLeft
          {
            OFFSET 6.797022 -26.990195 -8.861942
            CHANNELS 3 Zrotation Xrotation Yrotation
            JOINT HandLeft
            {
              OFFSET -1.449121 -7.493421 1.297977
              CHANNELS 3 Zrotation Xrotation Yrotation
              JOINT HandTipLeft
              {
                OFFSET -1.174811 -7.600738 0.598147
                CHANNELS 3 Zrotation Xrotation Yrotation
                End Site
                {
                  OFFSET 0 0 0
                }
              }
              JOINT ThumbLeft
              {
                OFFSET 3.538322 -1.006758 -5.027308
                CHANNELS 3 Zrotation Xrotation Yrotation
                End Site
                {
                  OFFSET 0 0 0
                }
              }
            }
          }
        }
      }
      JOINT ShoulderRight
      {
        OFFSET 15.000970 -9.223562 -11.332803
        CHANNELS 3 Zrotation Xrotation Yrotation
        JOINT ElbowRight
        {
          OFFSET 5.013285 -28.521912 1.213053
          CHANNELS 3 Zrotation Xrotation Yrotation
          JOINT WristRight
          {
            OFFSET 2.909573 -25.615669 9.043189
            CHANNELS 3 Zrotation Xrotation Yrotation
            JOINT HandRight
            {
              OFFSET -1.527939 -6.654724 2.239267
              CHANNELS 3 Zrotation Xrotation Yrotation
              JOINT HandTipRight
              {
                OFFSET 0.482118 -6.791382 0.543204
                CHANNELS 3 Zrotation Xrotation Yrotation
                End Site
                {
                  OFFSET 0 0 0
                }
              }
              JOINT ThumbRight
              {
                OFFSET 4.286509 -0.070587 -2.853646
                CHANNELS 3 Zrotation Xrotation Yrotation
                End Site
                {
                  OFFSET 0 0 0
                }
              }
            }
          }
        }
      }
    }
  }
  JOINT HipLeft
  {
    OFFSET -5.131669 0.858764 -2.511779
    CHANNELS 3 Zrotation Xrotation Yrotation
    JOINT KneeLeft
    {
      OFFSET -5.405207 -41.962433 3.539706
      CHANNELS 3 Zrotation Xrotation Yrotation
      JOINT AnkleLeft
      {
        OFFSET -1.900718 -38.335807 4.832803
        CHANNELS 3 Zrotation Xrotation Yrotation
        JOINT FootLeft
        {
          OFFSET -1.647000 -4.869688 -16.405828
          CHANNELS 3 Zrotation Xrotation Yrotation
          End Site
          {
            OFFSET 0 0 0
          }
        }
      }
    }
  }
  JOINT HipRight
  {
    OFFSET 6.619018 0.087427 -4.846530
    CHANNELS 3 Zrotation Xrotation Yrotation
    JOINT KneeRight
    {
      OFFSET -1.056258 -40.511377 3.509913
      CHANNELS 3 Zrotation Xrotation Yrotation
      JOINT AnkleRight
      {
        OFFSET -1.954429 -37.373224 2.306095
        CHANNELS 3 Zrotation Xrotation Yrotation
        JOINT FootRight
        {
          OFFSET -1.232479 -5.432592 -12.799773
          CHANNELS 3 Zrotation Xrotation Yrotation
          End Site
          {
            OFFSET 0 0 0
          }
        }
      }
    }
  }
}
MOTION
Frames: 12
Frame Time: 0.033333
-60.139446 85.378619 295.523926 0.383876 1.562814 6.549724 0.046822 0.011581 -6.552597 0.031208 0.019242 0.005281 -1.208859 -2.781451 0.268440 0.000000 0.000000 0.000000 0.917038 2.622084 -1.599550 0.049374 -1.677298 1.780594 -2.756295 2.195200 -1.381017 6.016344 -0.943725 1.242295 0.000000 0.000000 0.000000 0.000000 0.000000 0.000000 -1.275962 -1.456661 -0.044657 1.312802 1.466692 0.365042 -1.033729 -8.681443 1.021606 5.314846 10.287269 -1.580794 0.000000 0.000000 0.000000 0.000000 0.000000 0.000000 -2.569937 -0.145420 -6.917272 3.577319 1.296996 0.406383 -0.258334 -6.665397 -2.897240 0.000000 0.000000 0.000000 3.840887 -12.323772 -5.284942 -9.825733 16.279737 0.180145 4.911003 -3.721769 -1.074613 0.000000 0.000000 0.000000
-60.049016 85.411303 296.021493 0.336202 1.726851 6.268915 0.023998 -0.005478 -6.274625 0.038105 0.014344 0.002336 -0.506500 -2.842847 0.106327 0.000000 0.000000 0.000000 0.987548 2.851697 -1.772558 0.121131 -1.565610 2.054422 -1.874661 3.348253 -1.634540 6.930787 -1.416027 1.552487 0.000000 0.000000 0.000000 0.000000 0.000000 0.000000 -1.517505 -1.570067 -0.057230 1.237666 1.177994 0.214576 -2.602702 -9.630514 0.625691 9.053318 10.876956 -1.619674 0.000000 0.000000 0.000000 0.000000 0.000000 0.000000 -3.177371 0.518615 -6.794621 4.575632 0.619644 0.644047 -0.549051 -6.740877 -2.871091 0.000000 0.000000 0.000000 4.918701 -14.095544 -4.649062 -11.361383 15.286768 0.461569 5.255182 -1.274788 -1.186725 0.000000 0.000000 0.000000
-59.977030 85.493326 296.675800 0.183873 1.763867 6.530895 0.053127 0.019318 -6.537946 0.046433 0.059641 -0.002827 0.506240 -3.081054 -0.095597 0.000000 0.000000 0.000000 1.315695 2.986390 -1.813374 0.292124 -0.713393 2.241048 -0.652950 2.672944 -1.588989 7.554664 -0.169814 1.273658 0.000000 0.000000 0.000000 0.000000 0.000000 0.000000 -1.820306 -1.602337 -0.064826 1.228224 0.851300 0.042277 -5.624814 -10.728258 -0.388671 12.474847 10.717472 -1.292122 0.000000 0.000000 0.000000 0.000000 0.000000 0.000000 -3.062031 0.834974 -7.097959 4.493844 0.824898 0.659071 -0.376741 -7.295347 -2.866441 0.000000 0.000000 0.000000 5.724473 -15.576505 -4.625043 -12.063848 13.557673 0.650856 5.142726 1.710847 -1.512484 0.000000 0.000000 0.000000
-59.960753 85.592363 297.318826 -0.101300 1.782152 6.705815 0.018138 0.031713 -6.718055 -0.004149 -0.004501 -0.017726 1.699729 -3.624497 -0.217916 0.000000 0.000000 0.000000 2.143150 3.255063 -1.752434 0.628685 0.920653 2.366834 1.133089 -0.436151 -0.936529 7.249710 3.369627 -0.065144 0.000000 0.000000 0.000000 0.000000 0.000000 0.000000 -1.995150 -1.279024 -0.018271 1.221190 0.394336 -0.197140 -6.375687 -10.195902 -0.777142 13.475919 9.569814 -0.815117 0.000000 0.000000 0.000000 0.000000 0.000000 0.000000 -2.423251 0.314631 -7.182922 3.734034 2.716346 0.407325 0.043601 -8.751426 -2.967053 0.000000 0.000000 0.000000 6.358969 -16.369240 -4.631477 -11.849792 10.498375 0.693241 4.639705 5.405784 -2.116246 0.000000 0.000000 0.000000
-59.980632 85.731395 298.226356 -0.472926 1.546236 5.750457 -0.017334 0.153409 -5.768813 -0.098262 -0.040109 -0.039166 3.276861 -4.672895 -0.325461 0.000000 0.000000 0.000000 3.237202 3.638286 -1.647423 0.917307 2.889965 2.465416 4.207805 -4.829259 0.533422 6.745886 8.572070 -2.410441 0.000000 0.000000 0.000000 0.000000 0.000000 0.000000 -2.328658 -0.831237 0.028206 1.471485 0.147627 -0.415268 -5.980945 -9.483389 -0.793923 12.519915 7.005244 -0.415551 0.000000 0.000000 0.000000 0.000000 0.000000 0.000000 -1.372766 -1.109759 -5.964012 2.709757 6.682041 -0.087598 0.465592 -11.208649 -3.400424 0.000000 0.000000 0.000000 7.267581 -16.356701 -3.570862 -11.114801 7.730320 0.659547 4.001503 8.422646 -3.056473 0.000000 0.000000 0.000000
-59.956413 85.887656 299.285201 -0.876853 1.068853 4.622775 -0.022228 0.258326 -4.647068 -0.233160 -0.021643 -0.061478 4.544248 -5.940796 -0.306998 0.000000 0.000000 0.000000 4.428247 4.143383 -1.501739 1.286865 5.343369 2.504391 7.791046 -10.883500 3.062287 5.673539 14.222544 -5.502587 0.000000 0.000000 0.000000 0.000000 0.000000 0.000000 -2.869001 -0.190855 0.078501 1.887621 0.166486 -0.615338 -3.834190 -8.487467 -0.237604 9.551404 4.059109 -0.302968 0.000000 0.000000 0.000000 0.000000 0.000000 0.000000 -0.697821 -3.581138 -4.447408 2.562969 12.545555 -0.765978 0.526897 -14.242931 -3.986953 0.000000 0.000000 0.000000 8.044565 -15.638880 -2.466045 -10.146536 5.771046 0.585606 3.406055 10.231594 -4.025454 0.000000 0.000000 0.000000
-59.879159 86.015124 300.376179 -1.229298 0.490377 3.509616 0.012859 0.321050 -3.540560 -0.330101 0.175593 -0.074999 5.160053 -7.016783 -0.196864 0.000000 0.000000 0.000000 5.438234 4.633002 -1.401364 1.967093 9.312754 2.724355 11.914022 -21.262404 7.683313 4.713679 22.886581 -10.346178 0.000000 0.000000 0.000000 0.000000 0.000000 0.000000 -3.607775 0.529456 0.155750 2.182898 -0.079018 -0.919254 -0.358885 -7.588459 0.913752 4.725395 -1.224684 -0.898368 0.000000 0.000000 0.000000 0.000000 0.000000 0.000000 -0.626618 -6.868385 -2.915907 3.990813 20.097288 -1.775411 -0.219222 -18.028567 -4.560082 0.000000 0.000000 0.000000 8.602378 -14.811160 -1.439510 -9.216648 4.659335 0.525052 2.900332 11.212231 -4.780615 0.000000 0.000000 0.000000
-59.663337 86.131009 301.461932 -1.377815 -0.278747 2.814662 -0.103477 0.573808 -2.854178 -0.384411 0.245131 -0.082264 5.707926 -9.736071 0.094836 0.000000 0.000000 0.000000 6.370157 5.125819 -1.259050 2.081565 10.713863 2.526627 16.429075 -26.578374 12.090282 3.001647 26.316857 -12.871896 0.000000 0.000000 0.000000 0.000000 0.000000 0.000000 -4.221386 0.997400 0.174178 2.384331 -0.036565 -1.135284 3.431149 -5.544544 1.976376 -0.404538 -5.390817 -1.552039 0.000000 0.000000 0.000000 0.000000 0.000000 0.000000 -1.149618 -10.296038 -1.853246 6.194477 27.409052 -3.156534 -1.107042 -21.283834 -4.909546 0.000000 0.000000 0.000000 8.553080 -13.552096 -0.966216 -8.379073 4.539749 0.432219 2.585150 10.916608 -5.093764 0.000000 0.000000 0.000000
-59.397207 86.219216 302.445896 -1.408468 -1.180181 2.953776 -0.182415 0.708148 -2.998481 -0.395251 0.041999 -0.078908 5.676387 -12.691877 0.491396 0.000000 0.000000 0.000000 6.987308 5.813003 -1.065323 2.202685 11.588460 2.079053 20.684422 -29.647307 16.075549 1.440465 28.798003 -14.760057 0.000000 0.000000 0.000000 0.000000 0.000000 0.000000 -4.610629 1.599132 0.157562 2.403356 0.379172 -1.212464 6.698856 -3.783059 2.839631 -4.143750 -10.570871 -2.470780 0.000000 0.000000 0.000000 0.000000 0.000000 0.000000 -2.489482 -13.646801 -1.770533 9.050686 33.807602 -4.865546 -1.867278 -23.660154 -4.914297 0.000000 0.000000 0.000000 8.281150 -12.437665 -1.320317 -7.646481 5.356262 0.317667 2.081656 9.814900 -4.909036 0.000000 0.000000 0.000000
-59.095600 86.284983 303.328488 -1.344692 -2.198968 3.708078 -0.157951 0.789007 -3.753743 -0.387029 -0.342372 -0.066184 4.779520 -14.692791 0.893608 0.000000 0.000000 0.000000 7.300407 6.450397 -0.755308 2.071392 12.149832 1.457125 24.204710 -32.209808 19.521273 0.325036 31.143799 -16.216908 0.000000 0.000000 0.000000 0.000000 0.000000 0.000000 -4.889110 2.336084 0.125643 2.236295 1.552572 -1.127773 10.049895 -3.456028 3.916125 -9.672344 -13.866450 -3.982576 0.000000 0.000000 0.000000 0.000000 0.000000 0.000000 -4.678648 -16.269555 -2.540194 12.609622 38.773448 -6.782332 -2.566877 -25.277752 -4.824373 0.000000 0.000000 0.000000 8.015297 -11.345074 -2.259035 -7.623160 6.824224 0.231875 2.013057 8.067279 -4.528438 0.000000 0.000000 0.000000
-58.757185 86.384088 304.317073 -1.164244 -3.362858 4.488722 -0.037585 0.822383 -4.530200 -0.280667 -0.797674 -0.037109 3.639539 -16.317564 1.240725 0.000000 0.000000 0.000000 7.027839 6.820943 -0.290825 1.535998 12.717773 0.831857 28.052376 -32.874974 22.008768 -0.587641 32.344024 -17.275229 0.000000 0.000000 0.000000 0.000000 0.000000 0.000000 -5.346249 3.264955 0.098216 2.538145 2.200973 -0.913082 10.702963 -3.518550 4.197759 -9.941677 -13.970460 -4.180965 0.000000 0.000000 0.000000 0.000000 0.000000 0.000000 -7.513153 -17.629993 -3.540467 15.580087 41.058318 -8.051260 -2.486787 -25.246828 -4.537180 0.000000 0.000000 0.000000 7.870571 -9.934562 -3.213849 -7.765092 7.459505 0.174049 1.912942 6.924123 -4.132743 0.000000 0.000000 0.000000
-58.593462 86.495977 305.370890 -0.924474 -4.696666 5.528973 0.124646 0.820053 -5.562559 -0.091418 -1.168902 0.002450 2.061554 -17.473522 1.611437 0.000000 0.000000 0.000000 6.389941 6.783433 0.396912 0.457294 12.320841 0.029389 31.360572 -30.879102 22.535672 -0.389704 33.591831 -18.780380 0.000000 0.000000 0.000000 0.000000 0.000000 0.000000 -5.209732 3.914802 -0.029867 1.769318 5.543223 -0.394275 8.532431 -10.529860 4.480979 -7.780246 -9.256079 -4.030733 0.000000 0.000000 0.000000 0.000000 0.000000 0.000000 -10.136211 -17.380589 -4.756874 15.966578 40.045000 -7.689446 -1.074582 -23.080868 -3.847636 0.000000 0.000000 0.000000 7.852355 -8.148859 -4.442097 -8.015177 7.678062 0.111126 1.724041 5.875298 -3.600358 0.000000 0.000000 0.000000
